Coordinates
version=1
nRows=4
nColumns=63
inDegrees=yes

Units are S.I. units (second, meters, Newtons, ...)
If the header above contains a line with 'inDegrees', this indicates whether rotational values are in degrees (yes) or radians (no).

endheader
time	pelvis_tilt	pelvis_list	pelvis_rotation	pelvis_tx	pelvis_ty	pelvis_tz	hip_flexion_r	hip_adduction_r	hip_rotation_r	knee_angle_r	knee_angle_r_beta	ankle_angle_r	subtalar_angle_r	mtp_angle_r	hip_flexion_l	hip_adduction_l	hip_rotation_l	knee_angle_l	knee_angle_l_beta	ankle_angle_l	subtalar_angle_l	mtp_angle_l	L5_S1_Flex_Ext	L5_S1_Lat_Bending	L5_S1_axial_rotation	L4_L5_Flex_Ext	L4_L5_Lat_Bending	L4_L5_axial_rotation	L3_L4_Flex_Ext	L3_L4_Lat_Bending	L3_L4_axial_rotation	L2_L3_Flex_Ext	L2_L3_Lat_Bending	L2_L3_axial_rotation	L1_L2_Flex_Ext	L1_L2_Lat_Bending	L1_L2_axial_rotation	L1_T12_Flex_Ext	L1_T12_Lat_Bending	L1_T12_axial_rotation	Abs_r3	Abs_r2	Abs_r1	Abs_t1	Abs_t2	neck_flexion	neck_bending	neck_rotation	arm_flex_r	arm_add_r	arm_rot_r	elbow_flex_r	pro_sup_r	wrist_flex_r	wrist_dev_r	arm_flex_l	arm_add_l	arm_rot_l	elbow_flex_l	pro_sup_l	wrist_flex_l	wrist_dev_l
      2.76666670	      6.49481582	     -3.79233401	   -181.07015190	      0.62430178	      0.82204279	      0.23695995	     43.46292249	     -6.07244988	      0.44120194	     50.47750323	      0.88099863	     22.31265413	     -4.60348887	      0.00000000	     -2.26337449	     10.50696412	     14.57549627	      3.92951610	      0.06858299	     23.90525486	     -5.49163724	      0.00000000	      0.05523515	     -1.01444989	     -1.37343382	      0.10257719	     -1.34921835	     -1.45927343	      0.09074582	     -2.46653345	     -1.45927343	      0.06312825	     -2.46653345	     -1.20175459	      0.05129136	     -2.06866621	     -1.11591498	      0.03156136	     -1.57138287	     -1.03007536	      0.39453913	    -11.47566001	     -7.63862687	      0.00000000	      0.00000000	      0.00000000	      0.00000000	      0.00000000	    -13.24557371	     -2.74598900	     -1.59591193	     31.99202763	     71.30087718	      0.00000000	      4.99670173	      3.20318379	    -16.25698936	      5.32778224	     47.45813030	     72.15361523	      0.00000000	      4.99670173
      2.80000000	      6.68380937	     -3.00472281	   -181.22083006	      0.62513627	      0.82158839	      0.23623802	     42.76855114	     -3.41478222	      1.88643562	     41.15547169	      0.71829849	     18.56779156	     -6.85394059	      0.00000000	     -4.19658405	      9.37059919	     14.43737823	      2.49750875	      0.04358975	     25.53997781	     -4.19438406	      0.00000000	      0.08313644	     -0.90881058	     -1.47014434	      0.15439268	     -1.20871807	     -1.56202836	      0.13658485	     -2.20968203	     -1.56202836	      0.09501663	     -2.20968203	     -1.28637630	      0.07720049	     -1.85324653	     -1.19449228	      0.04750416	     -1.40774758	     -1.10260826	      0.59383525	    -10.28064700	     -8.17650178	      0.00000000	      0.00000000	      0.00000000	      0.00000000	      0.00000000	    -13.65864278	     -3.03060138	     -1.45491192	     31.53083853	     70.50493973	      0.00000000	      4.99693419	      4.18398027	    -16.33945692	      4.09480635	     49.00552062	     72.02727802	      0.00000000	      4.99693419
      2.83333330	      6.70636038	     -1.89810842	   -181.39131023	      0.62554978	      0.82003637	      0.23558809	     40.89530388	     -0.82185343	      3.31916777	     32.33973788	      0.56443491	     14.46049637	     -9.40632370	      0.00000000	     -6.38636203	      8.03811271	     14.09082844	      1.70036333	      0.02967694	     27.25876348	     -3.12284188	      0.00000000	      0.07668292	     -0.75114174	     -1.56675658	      0.14240785	     -0.99901851	     -1.66467887	      0.12598237	     -1.82632602	     -1.66467887	      0.08764091	     -1.82632602	     -1.37091201	      0.07120776	     -1.53172823	     -1.27298972	      0.04381662	     -1.16351855	     -1.17506744	      0.54773844	     -8.49706557	     -8.71383009	      0.00000000	      0.00000000	      0.00000000	      0.00000000	      0.00000000	    -13.85821800	     -3.56061214	     -1.31152455	     31.35380718	     69.94056968	      0.00000000	      4.99710043	      4.73092143	    -16.09049156	      3.03795255	     49.94346723	     72.00901283	      0.00000000	      4.99710043
      2.86666670	      6.75264731	     -0.46550083	   -181.61291546	      0.62536133	      0.81713478	      0.23485238	     38.67527090	      1.78014627	      4.76355169	     25.23554358	      0.44044332	     10.44371521	    -12.35684165	      0.00000000	     -8.65798145	      6.49265494	     13.17984940	      1.44950080	      0.02529856	     29.04803127	     -1.88333787	      0.00000000	      0.05984562	     -0.54499945	     -1.63280311	      0.11113930	     -0.72484927	     -1.73485330	      0.09832037	     -1.32511167	     -1.73485330	      0.06839756	     -1.32511167	     -1.42870272	      0.05557264	     -1.11136288	     -1.32665253	      0.03419579	     -0.84420415	     -1.22460233	      0.42747128	     -6.16514279	     -9.08116104	      0.00000000	      0.00000000	      0.00000000	      0.00000000	      0.00000000	    -13.91508643	     -4.32312832	     -0.95145452	     31.15550918	     69.32655803	      0.00000000	      4.99730352	      4.88638548	    -15.22804130	      1.67132940	     50.26035454	     72.06153588	      0.00000000	      4.99730352
